<?xml version="1.0" standalone="no"?>
<!DOCTYPE svg PUBLIC "-//W3C//DTD SVG 20010904//EN"
 "http://www.w3.org/TR/2001/REC-SVG-20010904/DTD/svg10.dtd">
<svg version="1.0" xmlns="http://www.w3.org/2000/svg"
 width="900.000000pt" height="900.000000pt" viewBox="0 0 900.000000 900.000000"
 preserveAspectRatio="xMidYMid meet">

<g transform="translate(0.000000,900.000000) scale(0.100000,-0.100000)"
fill="#000000" stroke="none">
<path d="M5261 7078 c-283 -546 -515 -994 -515 -994 -1 -1 -769 -125 -1707
-275 l-1707 -274 1698 -3 c934 -1 2466 -1 3404 0 l1706 3 -1324 274 c-1119
232 -1323 277 -1320 290 10 44 284 1955 282 1962 -2 5 -234 -437 -517 -983z"/>
<path d="M1320 5187 c0 -2 -110 -232 -245 -512 -135 -280 -245 -510 -245 -512
0 -2 57 -2 126 -1 l125 3 192 407 c106 223 193 405 195 404 2 -3 -140 -691
-163 -793 -5 -23 -5 -23 123 -23 l129 0 299 392 c164 216 305 399 311 408 7 8
-75 -164 -182 -383 -107 -220 -195 -403 -195 -408 0 -15 256 -11 267 4 13 16
483 1000 483 1010 0 4 -100 7 -222 7 l-223 -1 -234 -329 c-129 -182 -236 -328
-238 -326 -2 2 30 148 71 325 42 177 76 323 76 326 0 3 -101 5 -225 5 -124 0
-225 -1 -225 -3z"/>
<path d="M2701 5108 c-21 -46 -131 -276 -245 -512 -113 -236 -206 -430 -206
-432 0 -2 176 -4 391 -4 l390 0 45 96 c24 52 44 100 44 105 0 5 -99 9 -240 9
-132 0 -240 2 -240 5 0 3 21 50 46 105 l47 100 228 0 229 0 45 90 c25 49 45
94 45 100 0 6 -79 10 -224 10 l-225 0 49 103 49 102 244 3 243 2 47 95 c26 53
47 97 47 100 0 3 -173 5 -385 5 l-385 0 -39 -82z"/>
<path d="M3674 5158 c-49 -95 -474 -983 -474 -991 0 -17 592 -1 680 18 82 18
213 75 285 125 186 128 365 438 365 632 0 71 -39 150 -89 183 -75 50 -133 58
-453 62 l-296 5 -18 -34z m526 -181 c24 -8 41 -24 55 -49 17 -33 18 -42 7 -95
-6 -32 -32 -100 -58 -151 -77 -157 -195 -256 -351 -297 -61 -16 -277 -21 -271
-6 2 4 68 144 147 310 l145 301 145 -1 c85 0 161 -5 181 -12z"/>
<path d="M4612 4686 c-133 -277 -242 -509 -242 -515 0 -8 97 -11 346 -11 l345
0 48 103 48 102 -199 3 c-109 1 -198 6 -198 10 0 4 86 184 190 401 105 217
190 398 190 403 0 4 -64 8 -143 8 l-143 0 -242 -504z"/>
<path d="M5465 4689 c-132 -275 -241 -507 -243 -515 -3 -12 18 -14 143 -12
l146 3 245 509 c134 279 244 510 244 512 0 2 -66 4 -147 4 l-148 0 -240 -501z"/>
<path d="M5946 4693 c-131 -274 -241 -506 -244 -515 -4 -16 6 -18 120 -18
l124 0 184 385 c101 212 185 383 187 381 4 -3 -11 -442 -23 -653 l-5 -113 193
0 194 0 224 468 c123 257 234 488 247 515 l23 47 -127 0 -128 0 -120 -253
c-66 -138 -146 -306 -178 -372 l-58 -120 5 225 c4 124 9 291 12 373 l6 147
-198 0 -199 0 -239 -497z"/>
<path d="M7122 4688 c-133 -277 -242 -509 -242 -515 0 -10 84 -13 385 -13
l385 0 49 99 c28 54 47 101 44 105 -4 3 -114 6 -245 6 -132 0 -238 4 -236 9 2
4 23 51 48 104 l45 97 230 0 230 0 43 93 c23 50 42 95 42 100 0 4 -99 7 -220
7 -138 0 -220 4 -220 10 0 5 21 53 47 105 l48 95 242 0 243 0 45 96 c25 54 45
99 45 100 0 2 -173 4 -383 4 l-384 0 -241 -502z"/>
<path d="M4130 3848 c-1 -2 -132 -659 -293 -1460 -161 -802 -290 -1454 -285
-1450 4 4 302 657 663 1451 360 794 658 1448 661 1452 3 5 -164 9 -370 9 -207
0 -376 -1 -376 -2z"/>
</g>
</svg>
